PathFileType	4	(X/Y/Z)	E:\3-PhD\Data\MocapData\ElaboratedData\009\pre\dynamicElaborations\Run_baseline3\Run_baseline3.trc
DataRate	CameraRate	NumFrames	NumMarkers	Units	OrigDataRate	DataStartFrame
200	200	6	54	mm	200	687
Frame#	Time	FHD			LBHD			RBHD			C7			T10			CLAV			LSHO			LUUPA			LMUPA			LDUPA			LLEP			LMEP			LRAD			LUL			LRFIN			RSHO			RUPA1			RMUPA			RDUPA			RLEP			RMEP			RRAD			RUL			RUFIN			RASI			USACR			LSACR			RSACR			LTHI1			LTHI2			LTHI3			LTHI4			LTIB1			LTIB2			LTIB3			LTIB4			LLMAL			LHEE			LMT1			LMT2			RTHI			RTHI2			RTHI3			RTHI4			RLFC			RTIB1			RTIB2			RTIB3			RTIB4			RLMAL			RHEE			RMT1			RMT2			RMT5		
		X1	Y1	Z1	X2	Y2	Z2	X3	Y3	Z3	X4	Y4	Z4	X5	Y5	Z5	X6	Y6	Z6	X7	Y7	Z7	X8	Y8	Z8	X9	Y9	Z9	X10	Y10	Z10	X11	Y11	Z11	X12	Y12	Z12	X13	Y13	Z13	X14	Y14	Z14	X15	Y15	Z15	X16	Y16	Z16	X17	Y17	Z17	X18	Y18	Z18	X19	Y19	Z19	X20	Y20	Z20	X21	Y21	Z21	X22	Y22	Z22	X23	Y23	Z23	X24	Y24	Z24	X25	Y25	Z25	X26	Y26	Z26	X27	Y27	Z27	X28	Y28	Z28	X29	Y29	Z29	X30	Y30	Z30	X31	Y31	Z31	X32	Y32	Z32	X33	Y33	Z33	X34	Y34	Z34	X35	Y35	Z35	X36	Y36	Z36	X37	Y37	Z37	X38	Y38	Z38	X39	Y39	Z39	X40	Y40	Z40	X41	Y41	Z41	X42	Y42	Z42	X43	Y43	Z43	X44	Y44	Z44	X45	Y45	Z45	X46	Y46	Z46	X47	Y47	Z47	X48	Y48	Z48	X49	Y49	Z49	X50	Y50	Z50	X51	Y51	Z51	X52	Y52	Z52	X53	Y53	Z53	X54	Y54	Z54	

694	3.465000	-752.515634	1371.909967	584.999426	-887.035591	1393.253293	442.250996	-899.096861	1365.283947	568.058441	-963.007000	1276.644734	491.175936	-1204.875904	1019.775485	471.864748	-893.388526	1137.759674	478.953764	-895.600764	1218.622717	359.452003	-902.777710	1061.435758	234.339306	-857.116133	1048.435326	239.153522	-880.066272	1001.474611	209.262064	-831.982613	890.759904	188.092754	-850.417673	851.331423	248.137724	-617.716259	954.384700	317.879657	-584.181688	898.472768	283.159608	-565.365222	999.507251	294.437940	-904.170604	1169.038491	649.070492	-1043.838514	1080.447921	736.501323	-1052.106468	1037.385772	722.875845	-1100.529473	1048.290956	754.025419	-1218.782687	978.033822	772.631708	-1252.420703	991.800106	709.894931	-1174.234625	722.650832	726.708803	-1240.361449	720.371788	746.643357	-1163.564175	667.288191	780.380460	-1097.938605	788.785289	555.610827	-1248.205363	917.045743	448.440823	-1247.438566	894.253134	412.339221	-1258.111115	878.151049	467.257809	-975.369257	701.182219	210.852685	-900.676566	659.407474	210.317559	-869.611105	677.636867	241.679066	-889.922946	600.820210	195.078878	-767.159165	338.385008	157.821350	-813.476297	330.663937	84.903950	-782.814971	311.741270	108.440451	-796.160266	226.276356	103.343745	-859.331956	104.870461	13.195607	-943.246176	56.151638	17.943210	-732.109631	52.858510	89.724149	-717.909745	57.169680	44.164857	-1040.130185	582.589681	610.371602	-980.011825	570.386410	633.494591	-956.685045	595.441556	640.624496	-933.167205	500.899680	616.401834	-852.778577	444.249347	603.852519	-904.501634	337.631023	439.793221	-1013.688737	335.729354	427.003766	-978.138986	311.732102	409.717218	-985.545253	293.398074	352.442400	-1093.273895	286.238971	324.009767	-1146.107364	327.924276	249.112390	-977.486525	174.811585	252.711968	-993.716399	163.473476	289.276886	-1059.116308	160.880360	318.446217	
695	3.470000	-729.581958	1365.576550	590.588784	-861.537495	1386.924470	445.705135	-875.827414	1359.236430	571.278675	-938.706472	1271.324299	494.454124	-1182.834419	1016.689865	475.220780	-870.108175	1131.602140	482.984649	-869.715174	1212.920483	364.239317	-868.008321	1056.053807	240.098431	-822.258181	1044.473556	246.900878	-842.314933	996.627358	216.515172	-789.635806	887.150963	198.074966	-808.544063	847.487862	257.771352	-583.965055	961.754422	334.569107	-546.631968	907.471884	301.007027	-533.298728	1009.334066	312.770365	-881.107383	1162.287890	653.060756	-1021.518769	1070.743455	737.909188	-1030.357041	1028.164118	721.563873	-1078.126706	1037.517495	754.534689	-1197.144733	970.338760	772.522431	-1230.310228	985.069489	709.960903	-1162.166683	713.583974	727.584447	-1228.380475	713.608270	747.517758	-1153.453257	658.130119	781.271979	-1076.161946	784.052748	558.295383	-1226.879425	913.272321	451.972733	-1226.409196	890.854885	415.677740	-1236.768237	874.215369	470.519825	-957.315875	695.308683	210.845780	-883.020448	652.800851	209.158427	-850.611890	671.415875	238.959635	-873.248616	593.864110	194.741948	-755.514882	331.359739	155.820387	-803.623205	325.736816	83.755541	-773.267742	305.446211	106.872105	-790.442432	220.671438	101.422913	-859.248666	102.319123	11.725790	-943.979260	54.113569	16.032263	-733.293650	53.190056	88.686528	-718.744283	57.116026	43.097172	-1017.121592	581.878823	614.677553	-957.102898	571.145472	638.717218	-934.480414	596.881608	646.185866	-908.242032	502.885892	622.246435	-826.136813	448.324806	610.854652	-870.573721	339.598731	446.217610	-979.494741	334.880980	430.238411	-942.471317	311.572252	413.652677	-947.639525	293.307645	356.669090	-1054.621245	282.460430	325.417564	-1106.363150	321.642616	248.406014	-932.940315	174.490926	258.634492	-950.092400	162.905095	294.669723	-1016.158413	158.423731	322.013410	
696	3.475000	-706.853262	1359.636898	596.509529	-836.220827	1380.927810	449.546206	-852.729169	1353.574694	574.845973	-914.528670	1266.297717	498.104012	-1160.858102	1013.818166	479.121574	-846.955781	1125.756778	487.394110	-843.608555	1207.545585	369.603256	-832.932836	1051.674301	246.546240	-787.293327	1041.367806	255.456550	-804.419657	992.865280	224.519973	-747.636655	884.620397	208.718786	-767.024714	844.711247	268.106563	-550.908055	969.173345	351.327400	-510.073177	916.603835	318.958871	-502.004206	1019.001108	331.029411	-858.298323	1155.991062	657.413898	-999.655778	1061.784093	739.601651	-1008.939792	1019.736837	720.771228	-1056.205547	1027.595782	755.267201	-1175.963801	963.053218	772.309013	-1208.499245	978.707758	709.836833	-1149.845409	705.516578	728.080936	-1216.090175	707.672674	747.802016	-1143.193251	649.993829	781.815616	-1054.320165	779.574919	561.194015	-1205.667240	909.730242	456.195775	-1205.595827	887.684371	419.764785	-1215.502360	870.517491	474.558325	-939.566032	690.209483	211.078009	-865.686374	646.952590	208.188777	-832.052388	665.698860	236.624863	-856.901034	587.742820	194.292554	-744.369957	325.144946	153.639228	-794.005530	321.535218	82.375214	-764.058145	299.948334	105.178311	-784.855689	215.969841	99.487133	-859.043875	100.523697	10.502163	-944.649510	52.834138	14.615734	-734.323026	53.626127	87.846309	-719.474432	57.197641	42.161340	-994.260601	581.356740	619.172728	-934.412782	572.042721	643.978524	-912.506060	598.448893	651.799964	-883.557776	505.104209	628.070038	-799.741478	452.658395	617.784454	-836.306412	341.457641	452.949610	-944.780940	333.519000	433.726801	-906.161187	311.009558	417.816629	-909.087649	292.875114	361.297258	-1014.997530	277.791784	327.213613	-1065.634361	314.224747	248.152142	-887.310107	173.929299	265.282043	-905.332743	162.006672	300.748508	-971.923026	155.355016	326.233078	
697	3.480000	-684.296587	1354.102923	602.778825	-811.110832	1375.326912	453.823338	-829.775651	1348.314867	578.812798	-890.467287	1261.621294	502.173620	-1138.936806	1011.177671	483.555907	-823.938389	1120.275289	492.189267	-817.377095	1202.577989	375.568334	-797.751002	1048.350688	253.707399	-752.408664	1039.162542	264.800153	-766.598449	990.230972	233.258116	-706.186402	883.187453	219.929859	-726.041877	843.008760	279.069995	-518.540364	976.620952	368.098277	-474.501674	925.814193	336.921485	-471.436288	1028.483041	349.148649	-835.682657	1150.166958	662.130223	-978.172225	1053.787878	741.704443	-987.775362	1012.283378	720.745974	-1034.723462	1018.834761	756.391125	-1155.188753	956.365201	772.135297	-1186.954784	972.907938	709.676296	-1137.187271	698.541590	728.179650	-1203.430988	702.654805	747.487430	-1132.684261	642.916133	781.937709	-1032.385468	775.436608	564.280712	-1184.533241	906.474361	461.057720	-1184.944103	884.772744	424.556934	-1194.280050	867.124323	479.334662	-922.020562	686.108752	211.624258	-848.590172	642.102944	207.505976	-813.900163	660.739832	234.852621	-840.767557	582.701756	193.788025	-733.748752	319.656476	151.356101	-784.641831	317.980031	80.832746	-755.213464	295.169576	103.430861	-779.398313	212.075106	97.582279	-858.708943	99.391746	9.586157	-945.212200	52.208897	13.741843	-735.129153	54.061717	87.205106	-720.046831	57.319727	41.355785	-971.567604	581.026667	623.826547	-911.941576	573.080835	649.269974	-890.756481	600.133250	657.446279	-859.137478	507.532173	633.865206	-773.622818	457.197743	624.628498	-801.781858	343.243311	459.986492	-909.567926	331.668049	437.518415	-869.299298	310.112102	422.314070	-869.986743	292.124318	366.325941	-974.448016	272.351271	329.505911	-1023.959536	305.812820	248.487901	-840.773769	173.260884	272.696209	-859.584271	160.906210	307.564890	-926.523422	151.820348	331.195259	
698	3.485000	-661.877262	1348.992373	609.418933	-786.222059	1370.182720	458.579493	-806.938341	1343.477180	583.228104	-866.517744	1257.345034	506.709217	-1117.044304	1008.790303	488.485385	-801.055003	1115.202048	497.382845	-791.120348	1198.087563	382.145471	-762.671482	1046.099679	261.586707	-717.794719	1037.865597	274.892709	-729.073347	988.728153	242.686025	-665.472755	882.846373	231.590692	-685.776859	842.361615	290.552650	-486.848930	984.068426	384.821744	-439.903725	935.044007	354.803014	-441.549178	1037.753087	367.073177	-813.214047	1144.838018	667.221086	-956.988074	1046.892509	744.321042	-966.797318	1005.901097	721.656043	-1013.635209	1011.433316	758.037250	-1134.755570	950.436362	772.148717	-1165.646511	967.847906	709.648983	-1124.120703	692.730597	727.861688	-1190.347648	698.622720	746.605828	-1121.801726	636.924046	781.560589	-1010.324150	771.710310	567.526688	-1163.426824	903.556649	466.471196	-1164.378236	882.153015	429.963480	-1173.056972	864.096400	484.756805	-904.600192	683.108983	212.518905	-831.669167	638.361449	207.159145	-796.114593	656.675149	233.737519	-824.773504	578.848259	193.274165	-723.690543	314.759310	148.997183	-775.627893	314.934608	79.181247	-746.800579	290.981441	101.660722	-774.115901	208.840615	95.724171	-858.265642	98.800959	8.990864	-945.655345	52.117132	13.396929	-735.699335	54.429633	86.741045	-720.459416	57.418203	40.668801	-949.055054	580.883945	628.599574	-889.680082	574.254215	654.581648	-869.215533	601.917968	663.103645	-834.996311	510.135607	639.623659	-747.807157	461.879583	631.376288	-767.083455	344.981113	467.329659	-873.883021	329.370478	441.660296	-831.990614	308.954315	427.255732	-830.434271	291.108629	371.792459	-933.039993	266.282787	332.409425	-981.376262	296.575254	249.526796	-793.529069	172.593439	280.927919	-813.014452	159.726215	315.191031	-880.105316	147.978577	336.995943	
699	3.490000	-639.559154	1344.335385	616.456363	-761.552554	1365.552093	463.853117	-784.185814	1339.091700	588.136745	-842.677130	1253.511187	511.755530	-1095.141531	1006.681734	493.850678	-778.292892	1110.574705	502.994516	-764.933436	1194.131072	389.331560	-727.904688	1044.903602	270.166350	-683.636834	1037.453226	285.676311	-692.060598	988.326232	252.737042	-625.662968	883.568687	243.567271	-646.396138	842.727135	302.414441	-455.813506	991.476236	401.434420	-406.257316	944.227789	372.512890	-412.298309	1046.779157	384.759910	-790.863951	1140.032872	672.713987	-936.033988	1041.147820	747.526103	-945.960537	1000.609181	723.581551	-992.894446	1005.463081	760.291997	-1114.595511	945.390900	772.489281	-1144.548788	963.680996	709.927080	-1110.586084	688.131149	727.114160	-1176.788384	695.618242	745.227680	-1110.402588	632.031860	780.615923	-988.105980	768.455083	570.905189	-1142.289050	901.026175	472.326245	-1143.813281	879.865495	435.860788	-1151.785181	861.486239	490.694482	-887.264699	681.159168	213.751618	-814.895876	635.671192	207.146422	-778.655031	653.477217	233.272844	-808.901975	576.119612	192.785189	-714.232430	310.302925	146.553079	-767.085746	312.240674	77.453876	-738.892347	287.235319	99.867891	-769.070316	206.098983	93.924223	-857.751166	98.628221	8.699139	-945.989253	52.441691	13.531231	-736.052301	54.692638	86.414977	-720.740826	57.456380	40.082458	-926.726086	580.919188	633.453274	-867.613163	575.548929	659.903907	-847.860091	603.780107	668.751632	-811.143608	512.869420	645.336373	-722.319600	466.630493	638.019539	-732.293063	346.687189	474.972154	-837.764319	326.683493	446.195446	-794.341726	307.604921	432.730733	-790.526551	289.885089	377.757541	-890.851334	259.741372	336.020143	-937.922035	286.700625	251.358414	-745.781903	172.007721	290.040057	-765.810318	158.574627	323.708483	-832.846528	143.989242	343.726789	
